<svg width="100" height="27" viewBox="0 0 100 27" fill="none" xmlns="http://www.w3.org/2000/svg">
<path d="M0 0H2.13308V12.3286C3.76844 10.4355 6.18593 9.22872 8.88783 9.22872C12.5378 9.22872 15.6663 11.4294 17.0409 14.553H14.6471C13.4621 12.6362 11.329 11.3584 8.91153 11.3584C6.49404 11.3584 4.36096 12.6362 3.17592 14.553H0V0ZM0 21.652V26.9762H2.13308V23.8763C3.76844 25.7694 6.18593 26.9762 8.88783 26.9762C12.5378 26.9762 15.6663 24.7756 17.0409 21.652H14.6471C13.4621 23.5687 11.329 24.8465 8.91153 24.8465C6.49404 24.8465 4.36096 23.5687 3.17592 21.652H0Z" fill="#171718"/>
<path d="M29.0334 9.22879C31.7353 9.22879 34.1528 10.4356 35.7882 12.3287V9.22879H37.9212V14.5531H34.7927C33.6077 12.6363 31.4746 11.3585 29.0571 11.3585C26.6396 11.3585 24.5065 12.6363 23.3215 14.5531H20.904C22.255 11.4295 25.4072 9.22879 29.0334 9.22879ZM20.904 21.6521C22.2787 24.7756 25.4072 26.9763 29.0571 26.9763C31.759 26.9763 34.1765 25.7695 35.8119 23.8764V26.9763H37.9449V21.6521H34.7927C33.6077 23.5688 31.4746 24.8466 29.0571 24.8466C26.6396 24.8466 24.5065 23.5688 23.3215 21.6521H20.904Z" fill="#171718"/>
<path d="M43.8463 9.22879H41.7132V14.553H44.6284C45.6949 12.66 47.7095 11.4058 50.0085 11.4058C52.3312 11.4058 54.3457 12.6836 55.3886 14.553H57.735C56.5262 11.4531 53.5162 9.27612 50.0085 9.27612C47.5673 9.27612 45.3631 10.341 43.8463 12.0211V9.22879ZM58.3038 21.6521H56.1707V27H58.3038V21.6521ZM43.8463 21.6521H41.7132V26.9763H43.8463V21.6521Z" fill="#171718"/>
<path d="M79.1135 0L76.9804 0V12.3286C75.345 10.4355 72.9275 9.22872 70.2256 9.22872C66.5757 9.22872 63.4472 11.4294 62.0725 14.553H64.4663C65.6514 12.6362 67.7844 11.3584 70.2019 11.3584C72.6194 11.3584 74.7525 12.6362 75.9375 14.553H79.1135V0ZM79.1135 21.652H75.9612C74.7762 23.5687 72.6431 24.8465 70.2256 24.8465C67.8081 24.8465 65.6751 23.5687 64.49 21.652H62.0962C63.4709 24.7756 66.5994 26.9762 70.2493 26.9762C72.9512 26.9762 75.3687 25.7694 77.0041 23.8763V26.9762H79.1372V21.652H79.1135Z" fill="#171718"/>
<path d="M91.1122 9.22882C93.8141 9.22882 96.2316 10.4357 97.8669 12.3287V9.22882H100V14.5531H96.8478C95.6628 12.6363 93.5297 11.3585 91.1122 11.3585C88.6947 11.3585 86.5616 12.6363 85.3766 14.5531H82.9828C84.3337 11.4295 87.4623 9.22882 91.1122 9.22882ZM82.9591 21.6521C84.3337 24.7757 87.4623 26.9764 91.1122 26.9764C93.8141 26.9764 96.2316 25.7695 97.8669 23.8765V26.9764H100V21.6521H96.8478C95.6628 23.5688 93.5297 24.8466 91.1122 24.8466C88.6947 24.8466 86.5616 23.5688 85.3766 21.6521H82.9591Z" fill="#171718"/>
<path d="M63.1915 17.6811C63.1578 17.4207 62.946 17.2904 62.5558 17.2904C62.1688 17.2904 61.9754 17.4106 61.9754 17.6511C61.9754 17.7513 62.0159 17.8281 62.0965 17.8815C62.1807 17.9316 62.2849 17.9733 62.4094 18.0068C62.5338 18.0401 62.6684 18.0719 62.813 18.1019C62.9611 18.1286 63.0974 18.1687 63.2218 18.2221C63.3463 18.2722 63.4489 18.3424 63.5297 18.4325C63.6136 18.5227 63.6558 18.6463 63.6558 18.8032C63.6558 19.047 63.5631 19.234 63.3783 19.3643C63.1932 19.4912 62.9426 19.5546 62.6265 19.5546C62.2899 19.5546 62.0226 19.4711 61.8242 19.3042C61.6424 19.1572 61.545 18.9652 61.5315 18.7281H61.9249C61.9486 18.9585 62.0797 19.1138 62.3186 19.194C62.4061 19.2207 62.4919 19.234 62.576 19.234C62.6634 19.234 62.744 19.229 62.8182 19.219C62.8922 19.209 62.9644 19.1906 63.0351 19.1639C63.1965 19.1004 63.2773 18.9919 63.2773 18.8383C63.2773 18.7348 63.2354 18.6563 63.1512 18.6028C63.0704 18.5461 62.9678 18.501 62.8433 18.4676C62.7189 18.4309 62.5826 18.3991 62.4347 18.3724C62.2899 18.3424 62.1555 18.3023 62.0311 18.2522C61.9064 18.2021 61.8022 18.1337 61.7183 18.0468C61.6374 17.96 61.5971 17.8398 61.5971 17.6861C61.5971 17.4591 61.6794 17.2837 61.8443 17.1602C62.0124 17.0333 62.2598 16.9698 62.5859 16.9698C62.8955 16.9698 63.1394 17.0433 63.3176 17.1902C63.4657 17.3138 63.5515 17.4774 63.575 17.6811H63.1915Z" fill="#171718"/>
<path fill-rule="evenodd" clip-rule="evenodd" d="M63.1473 17.7317L63.1416 17.6877C63.1266 17.5716 63.0732 17.4878 62.9811 17.4311C62.8864 17.3729 62.7466 17.3409 62.5561 17.3409C62.3661 17.3409 62.2323 17.3707 62.1474 17.4235C62.0665 17.4738 62.0261 17.5472 62.0261 17.6512C62.0261 17.7348 62.0584 17.7953 62.1237 17.839C62.2026 17.8858 62.302 17.9258 62.4227 17.9582C62.5459 17.9913 62.6793 18.0227 62.8229 18.0526C62.9739 18.0799 63.1135 18.1208 63.2415 18.1758C63.3719 18.2284 63.4809 18.3025 63.5673 18.3987C63.6618 18.5005 63.7065 18.6374 63.7065 18.8034C63.7065 19.062 63.6071 19.265 63.4076 19.4056L63.4071 19.406C63.2108 19.5405 62.9491 19.6052 62.6267 19.6052C62.282 19.6052 62.0021 19.5196 61.7922 19.3431C61.5994 19.1871 61.4956 18.9819 61.4813 18.7311L61.4782 18.6778H61.9707L61.9754 18.7231C61.9863 18.8297 62.0217 18.9162 62.0799 18.985C62.1381 19.054 62.2218 19.1083 62.3343 19.1461C62.4171 19.1713 62.4977 19.1838 62.5762 19.1838C62.6617 19.1838 62.74 19.1789 62.8117 19.1692C62.8816 19.1597 62.9501 19.1423 63.0171 19.117C63.0913 19.0878 63.143 19.0498 63.1764 19.005C63.2094 18.9606 63.227 18.9059 63.227 18.8384C63.227 18.7512 63.1931 18.6892 63.1243 18.6455L63.1223 18.6442C63.0475 18.5917 62.9508 18.5487 62.8304 18.5164L62.8292 18.5161C62.7068 18.4799 62.5723 18.4486 62.4259 18.4221L62.4246 18.4219C62.2772 18.3913 62.1399 18.3504 62.0124 18.2991C61.8819 18.2466 61.7715 18.1744 61.6821 18.0819L61.6814 18.0813C61.5896 17.9826 61.5468 17.8487 61.5468 17.6863C61.5468 17.4453 61.6351 17.2542 61.8141 17.1201C61.9946 16.9838 62.2547 16.9196 62.5862 16.9196C62.9034 16.9196 63.16 16.9949 63.35 17.1515L63.3502 17.1517C63.509 17.2841 63.6005 17.4599 63.6254 17.6755L63.6318 17.7317H63.1473ZM61.8445 17.1603C61.6796 17.2839 61.5973 17.4592 61.5973 17.6863C61.5973 17.8399 61.6376 17.9601 61.7185 18.047C61.8024 18.1338 61.9066 18.2022 62.0313 18.2523C62.1557 18.3024 62.2901 18.3425 62.4349 18.3726C62.5828 18.3993 62.7191 18.431 62.8435 18.4677C62.968 18.5011 63.0706 18.5462 63.1514 18.603C63.2356 18.6564 63.2775 18.7349 63.2775 18.8384C63.2775 18.992 63.1967 19.1006 63.0353 19.164C62.9647 19.1907 62.8924 19.2091 62.8184 19.2191C62.7442 19.2291 62.6637 19.2342 62.5762 19.2342C62.4921 19.2342 62.4063 19.2208 62.3188 19.1941C62.0799 19.1139 61.9488 18.9586 61.9251 18.7282H61.5317C61.5327 18.7453 61.5341 18.7621 61.5359 18.7786C61.5596 18.9927 61.6557 19.1679 61.8244 19.3043C62.0228 19.4713 62.2901 19.5548 62.6267 19.5548C62.9428 19.5548 63.1934 19.4913 63.3785 19.3644C63.5633 19.2342 63.656 19.0471 63.656 18.8034C63.656 18.6464 63.6138 18.5228 63.5299 18.4327C63.4491 18.3425 63.3465 18.2724 63.222 18.2223C63.0976 18.1688 62.9613 18.1288 62.8132 18.1021C62.6686 18.072 62.534 18.0403 62.4096 18.0069C62.2852 17.9735 62.1809 17.9317 62.0967 17.8816C62.0161 17.8282 61.9756 17.7514 61.9756 17.6512C61.9756 17.4108 62.169 17.2905 62.5561 17.2905C62.9462 17.2905 63.1581 17.4208 63.1917 17.6813H63.5752C63.5732 17.6642 63.5708 17.6474 63.568 17.6309C63.5369 17.4504 63.4535 17.3036 63.3178 17.1903C63.1396 17.0434 62.8957 16.9699 62.5862 16.9699C62.26 16.9699 62.0126 17.0334 61.8445 17.1603Z" fill="#171718"/>
<path d="M38.7876 18.2618C38.7876 17.5913 38.24 17.0449 37.5678 17.0449C37.1098 17.0449 36.7364 17.2982 36.5472 17.6708V17.1443H36.348V20.4468H36.537L36.5472 18.8529C36.7364 19.2254 37.1098 19.4788 37.5678 19.4788C38.24 19.4788 38.7876 18.9324 38.7876 18.2618ZM38.5885 18.2618C38.5885 18.838 38.1304 19.3049 37.5678 19.3049C37.0052 19.3049 36.5472 18.838 36.5472 18.2618C36.5472 17.6857 37.0052 17.2188 37.5678 17.2188C38.1304 17.2188 38.5885 17.6857 38.5885 18.2618Z" fill="#171718"/>
<path fill-rule="evenodd" clip-rule="evenodd" d="M36.537 20.4468H36.348V17.1443H36.5472V17.6708C36.5829 17.6004 36.6252 17.5343 36.6735 17.4733C36.8805 17.2116 37.1963 17.0449 37.5678 17.0449C38.24 17.0449 38.7876 17.5913 38.7876 18.2618C38.7876 18.9324 38.24 19.4788 37.5678 19.4788C37.1963 19.4788 36.8805 19.3121 36.6735 19.0504C36.6252 18.9894 36.5829 18.9233 36.5472 18.8529L36.537 20.4468ZM36.6735 19.2397L36.6735 20.4468H36.2217V17.0128H36.6735V17.284C36.8997 17.0582 37.211 16.9189 37.5678 16.9189C38.3097 16.9189 38.9139 17.5217 38.9139 18.2618C38.9139 19.002 38.3097 19.6047 37.5678 19.6047C37.211 19.6047 36.8997 19.4655 36.6735 19.2397ZM37.5678 19.1789C38.0579 19.1789 38.4622 18.7712 38.4622 18.2618C38.4622 17.7525 38.0579 17.3448 37.5678 17.3448C37.0777 17.3448 36.6735 17.7525 36.6735 18.2618C36.6735 18.7712 37.0777 19.1789 37.5678 19.1789ZM37.5678 19.3049C38.1304 19.3049 38.5885 18.838 38.5885 18.2618C38.5885 17.6857 38.1304 17.2188 37.5678 17.2188C37.0052 17.2188 36.5472 17.6857 36.5472 18.2618C36.5472 18.838 37.0052 19.3049 37.5678 19.3049Z" fill="#171718"/>
<path d="M42.6179 16.353L42.4187 16.353V16.5716H42.6179V16.353ZM42.6179 17.2453H42.4187V19.4804H42.6179V17.2453Z" fill="#171718"/>
<path fill-rule="evenodd" clip-rule="evenodd" d="M42.7441 16.227V16.6976H42.2924V16.227L42.7441 16.227ZM42.7441 17.1193V19.6064H42.2924V17.1193H42.7441ZM42.6179 16.5716H42.4187V16.353L42.6179 16.353V16.5716ZM42.4187 17.2453H42.6179V19.4804H42.4187V17.2453Z" fill="#171718"/>
<path d="M47.4367 18.3628L48.3776 17.2452H48.1237L47.3122 18.2138L46.4957 17.2452H46.2417L47.1827 18.3628L46.2417 19.4804H46.4957L47.3122 18.5118L48.1237 19.4804H48.3776L47.4367 18.3628Z" fill="#171718"/>
<path fill-rule="evenodd" clip-rule="evenodd" d="M46.4957 17.2452L47.3122 18.2138L48.1237 17.2452H48.3776L47.4367 18.3628L48.3776 19.4804H48.1237L47.3122 18.5118L46.4957 19.4804H46.2417L47.1827 18.3628L46.2417 17.2452H46.4957ZM47.0178 18.3628L45.9707 17.1193H46.5545L47.3119 18.0177L48.0647 17.1193H48.6487L47.6016 18.3628L48.6487 19.6064H48.0647L47.3119 18.7079L46.5545 19.6064H45.9707L47.0178 18.3628Z" fill="#171718"/>
<path d="M53.2907 19.2159C53.638 19.2159 53.8872 19.1102 54.0385 18.8303H54.4614C54.372 19.0569 54.2293 19.2059 54.0334 19.3459C53.8408 19.4859 53.5916 19.5559 53.2856 19.5559C52.8971 19.5559 52.5808 19.4309 52.3367 19.1809C52.0994 18.9376 51.9808 18.6326 51.9808 18.266C51.9808 17.896 52.0943 17.591 52.3212 17.351C52.5619 17.1011 52.8747 16.9761 53.2598 16.9761C53.6449 16.9761 53.9577 17.1011 54.1984 17.351C54.4253 17.591 54.5388 17.896 54.5388 18.266V18.416H52.3779C52.4054 18.6459 52.5 18.8359 52.6616 18.9859C52.8266 19.1392 53.0363 19.2159 53.2907 19.2159ZM53.2598 17.316C53.0226 17.316 52.8232 17.3877 52.6616 17.531C52.5103 17.6677 52.4175 17.846 52.3831 18.066H54.1365C54.1021 17.846 54.0093 17.6677 53.858 17.531C53.6964 17.3877 53.497 17.316 53.2598 17.316Z" fill="#171718"/>
<path fill-rule="evenodd" clip-rule="evenodd" d="M54.0054 18.7748H54.5429L54.5131 18.8506C54.4186 19.0901 54.2673 19.2469 54.0659 19.3908C53.8615 19.5393 53.5999 19.6113 53.2856 19.6113C52.8839 19.6113 52.5527 19.4815 52.2969 19.2196C52.0487 18.965 51.9253 18.6458 51.9253 18.266C51.9253 17.8837 52.043 17.5646 52.2808 17.313L52.2811 17.3127C52.5335 17.0506 52.8614 16.9207 53.2598 16.9207C53.6582 16.9207 53.9861 17.0506 54.2384 17.3127L54.2388 17.313C54.4766 17.5646 54.5943 17.8837 54.5943 18.266V18.4714H52.4424C52.4769 18.6611 52.5626 18.8184 52.6994 18.9453C52.8528 19.0879 53.0484 19.1605 53.2907 19.1605C53.4591 19.1605 53.599 19.1348 53.7135 19.0784C53.8271 19.0224 53.919 18.9346 53.9896 18.804L54.0054 18.7748ZM52.386 18.4714C52.3829 18.4532 52.3802 18.4347 52.3779 18.416H54.5388V18.266C54.5388 17.896 54.4253 17.591 54.1984 17.351C53.9577 17.1011 53.6449 16.9761 53.2598 16.9761C52.8747 16.9761 52.5619 17.1011 52.3212 17.351C52.0943 17.591 51.9808 17.896 51.9808 18.266C51.9808 18.6326 52.0994 18.9376 52.3367 19.1809C52.5808 19.4309 52.8971 19.5559 53.2856 19.5559C53.5916 19.5559 53.8408 19.4859 54.0334 19.3459C54.2129 19.2176 54.3477 19.0818 54.4378 18.8857C54.446 18.8677 54.4539 18.8493 54.4614 18.8303H54.0385C53.8872 19.1102 53.638 19.2159 53.2907 19.2159C53.0363 19.2159 52.8266 19.1392 52.6616 18.9859C52.5131 18.8481 52.4213 18.6766 52.386 18.4714ZM52.6987 17.5723C52.5725 17.6863 52.4894 17.8316 52.45 18.0106H54.0696C54.0302 17.8316 53.9471 17.6863 53.8209 17.5723C53.6706 17.439 53.4847 17.3715 53.2598 17.3715C53.0348 17.3715 52.849 17.439 52.6987 17.5723ZM53.858 17.531C53.9964 17.656 54.0859 17.8159 54.1264 18.0106C54.1302 18.0287 54.1336 18.0472 54.1365 18.066H52.3831C52.386 18.0472 52.3894 18.0287 52.3932 18.0106C52.4337 17.8159 52.5232 17.656 52.6616 17.531C52.8232 17.3877 53.0226 17.316 53.2598 17.316C53.497 17.316 53.6964 17.3877 53.858 17.531Z" fill="#171718"/>
<path d="M58.1086 16.3528H57.9094V19.4804H58.1086V16.3528Z" fill="#171718"/>
<path fill-rule="evenodd" clip-rule="evenodd" d="M58.2349 16.2268V19.6064H57.7832V16.2268H58.2349ZM57.9094 16.3528H58.1086V19.4804H57.9094V16.3528Z" fill="#171718"/>
</svg>
