<svg width="148" height="40" viewBox="0 0 148 40" fill="none" xmlns="http://www.w3.org/2000/svg">
<path d="M0 0H3.15696V18.2646C5.57729 15.4601 9.15517 13.6722 13.154 13.6722C18.5559 13.6722 23.1861 16.9325 25.2206 21.56H21.6778C19.9239 18.7204 16.7669 16.8273 13.1891 16.8273C9.61118 16.8273 6.45422 18.7204 4.70036 21.56H0V0ZM0 32.077V39.9648H3.15696V35.3724C5.57729 38.1769 9.15517 39.9648 13.154 39.9648C18.5559 39.9648 23.1861 36.7045 25.2206 32.077H21.6778C19.9239 34.9166 16.7669 36.8097 13.1891 36.8097C9.61118 36.8097 6.45422 34.9166 4.70036 32.077H0Z" fill="#171718"/>
<path d="M42.9694 13.6723C46.9682 13.6723 50.5461 15.4602 52.9665 18.2647V13.6723H56.1234V21.5601H51.4932C49.7394 18.7205 46.5824 16.8274 43.0045 16.8274C39.4266 16.8274 36.2697 18.7205 34.5158 21.5601H30.9379C32.9373 16.9326 37.6026 13.6723 42.9694 13.6723ZM30.9379 32.0771C32.9724 36.7047 37.6026 39.9649 43.0045 39.9649C47.0033 39.9649 50.5812 38.177 53.0015 35.3725V39.9649H56.1585V32.0771H51.4932C49.7394 34.9168 46.5824 36.8098 43.0045 36.8098C39.4266 36.8098 36.2697 34.9168 34.5158 32.0771H30.9379Z" fill="#171718"/>
<path d="M64.8925 13.6723H61.7355V21.5601H66.05C67.6285 18.7555 70.6101 16.8975 74.0126 16.8975C77.4501 16.8975 80.4317 18.7906 81.9751 21.5601H85.4478C83.6588 16.9676 79.204 13.7424 74.0126 13.7424C70.3996 13.7424 67.1374 15.32 64.8925 17.809V13.6723ZM86.2896 32.0771H83.1326V40H86.2896V32.0771ZM64.8925 32.0771H61.7355V39.9649H64.8925V32.0771Z" fill="#171718"/>
<path d="M117.088 0H113.931V18.2646C111.511 15.4601 107.933 13.6722 103.934 13.6722C98.532 13.6722 93.9018 16.9325 91.8673 21.56H95.4101C97.164 18.7204 100.321 16.8273 103.899 16.8273C107.477 16.8273 110.634 18.7204 112.388 21.56H117.088V0ZM117.088 32.077H112.423C110.669 34.9166 107.512 36.8097 103.934 36.8097C100.356 36.8097 97.1991 34.9166 95.4452 32.077H91.9024C93.9369 36.7045 98.5671 39.9648 103.969 39.9648C107.968 39.9648 111.546 38.1769 113.966 35.3724V39.9648H117.123V32.077H117.088Z" fill="#171718"/>
<path d="M134.846 13.6723C138.845 13.6723 142.423 15.4602 144.843 18.2647V13.6723H148V21.5601H143.335C141.581 18.7205 138.424 16.8274 134.846 16.8274C131.268 16.8274 128.111 18.7205 126.357 21.5601H122.815C124.814 16.9326 129.444 13.6723 134.846 13.6723ZM122.779 32.0771C124.814 36.7047 129.444 39.9649 134.846 39.9649C138.845 39.9649 142.423 38.177 144.843 35.3725V39.9649H148V32.0771H143.335C141.581 34.9168 138.424 36.8098 134.846 36.8098C131.268 36.8098 128.111 34.9168 126.357 32.0771H122.779Z" fill="#171718"/>
<path d="M93.5234 26.1942C93.4736 25.8084 93.16 25.6154 92.5826 25.6154C92.0098 25.6154 91.7236 25.7935 91.7236 26.1497C91.7236 26.2982 91.7836 26.4119 91.9028 26.4911C92.0274 26.5653 92.1817 26.6271 92.3659 26.6766C92.55 26.7261 92.7492 26.7731 92.9632 26.8176C93.1825 26.8572 93.3841 26.9166 93.5683 26.9957C93.7525 27.07 93.9043 27.1739 94.024 27.3074C94.1481 27.441 94.2106 27.6241 94.2106 27.8566C94.2106 28.2178 94.0734 28.4948 93.7998 28.6878C93.5259 28.8758 93.1551 28.9698 92.6872 28.9698C92.1891 28.9698 91.7934 28.8461 91.4998 28.5987C91.2308 28.381 91.0866 28.0966 91.0666 27.7453H91.6489C91.6839 28.0867 91.8779 28.3167 92.2315 28.4355C92.3609 28.475 92.4879 28.4948 92.6124 28.4948C92.7419 28.4948 92.8611 28.4874 92.9709 28.4726C93.0804 28.4577 93.1874 28.4305 93.2919 28.3909C93.5308 28.2969 93.6504 28.1361 93.6504 27.9085C93.6504 27.7552 93.5883 27.6389 93.4638 27.5597C93.3442 27.4756 93.1923 27.4088 93.0081 27.3594C92.824 27.305 92.6223 27.2579 92.4034 27.2184C92.1891 27.1739 91.9902 27.1145 91.806 27.0403C91.6215 26.966 91.4672 26.8646 91.343 26.736C91.2234 26.6073 91.1638 26.4293 91.1638 26.2017C91.1638 25.8652 91.2855 25.6055 91.5296 25.4224C91.7783 25.2345 92.1445 25.1404 92.6272 25.1404C93.0853 25.1404 93.4462 25.2493 93.71 25.467C93.9292 25.65 94.0562 25.8924 94.091 26.1942H93.5234Z" fill="#171718"/>
<path fill-rule="evenodd" clip-rule="evenodd" d="M93.458 26.2691L93.4496 26.204C93.4273 26.0319 93.3483 25.9078 93.2119 25.8239C93.0718 25.7377 92.865 25.6903 92.5829 25.6903C92.3019 25.6903 92.1038 25.7344 91.9781 25.8126C91.8584 25.8871 91.7986 25.9958 91.7986 26.15C91.7986 26.2737 91.8464 26.3635 91.943 26.4282C92.0599 26.4975 92.2069 26.5568 92.3856 26.6048C92.5679 26.6537 92.7654 26.7003 92.9778 26.7446C93.2013 26.785 93.408 26.8457 93.5974 26.9271C93.7904 27.005 93.9517 27.1149 94.0795 27.2574C94.2194 27.4082 94.2856 27.611 94.2856 27.8568C94.2856 28.24 94.1384 28.5408 93.8432 28.749L93.8425 28.7496C93.5519 28.9489 93.1646 29.0447 92.6875 29.0447C92.1773 29.0447 91.7631 28.9179 91.4525 28.6565C91.1671 28.4253 91.0134 28.1213 90.9923 27.7498L90.9878 27.6709H91.7167L91.7235 27.7379C91.7398 27.8958 91.7921 28.024 91.8782 28.126C91.9644 28.2281 92.0883 28.3086 92.2547 28.3646C92.3773 28.402 92.4966 28.4204 92.6127 28.4204C92.7394 28.4204 92.8552 28.4131 92.9612 28.3988C93.0648 28.3848 93.1661 28.359 93.2652 28.3215C93.375 28.2782 93.4517 28.2219 93.501 28.1556C93.5499 28.0897 93.5759 28.0088 93.5759 27.9088C93.5759 27.7796 93.5258 27.6877 93.4239 27.623L93.421 27.6211C93.3103 27.5433 93.1671 27.4795 92.989 27.4317L92.9872 27.4312C92.806 27.3777 92.607 27.3312 92.3904 27.2921L92.3885 27.2917C92.1702 27.2464 91.967 27.1857 91.7784 27.1097C91.5852 27.032 91.4217 26.9251 91.2895 26.7881L91.2885 26.787C91.1526 26.6408 91.0893 26.4425 91.0893 26.2019C91.0893 25.8449 91.2199 25.5618 91.4849 25.3631C91.752 25.1612 92.137 25.066 92.6275 25.066C93.0971 25.066 93.4768 25.1776 93.7579 25.4096L93.7583 25.4099C93.9932 25.6061 94.1288 25.8665 94.1655 26.1859L94.1751 26.2691H93.458ZM91.5299 25.4227C91.2858 25.6057 91.1641 25.8655 91.1641 26.2019C91.1641 26.4295 91.2237 26.6076 91.3433 26.7362C91.4675 26.8649 91.6218 26.9663 91.8063 27.0405C91.9905 27.1147 92.1894 27.1741 92.4037 27.2186C92.6226 27.2582 92.8243 27.3052 93.0084 27.3596C93.1926 27.4091 93.3445 27.4759 93.4641 27.56C93.5886 27.6391 93.6507 27.7554 93.6507 27.9088C93.6507 28.1364 93.5311 28.2972 93.2922 28.3912C93.1877 28.4307 93.0807 28.458 92.9712 28.4728C92.8614 28.4876 92.7422 28.495 92.6127 28.495C92.4882 28.495 92.3612 28.4752 92.2318 28.4357C91.8782 28.317 91.6842 28.0869 91.6492 27.7455H91.0669C91.0683 27.7708 91.0704 27.7956 91.0731 27.8202C91.1082 28.1373 91.2504 28.3969 91.5001 28.599C91.7937 28.8463 92.1894 28.97 92.6875 28.97C93.1554 28.97 93.5262 28.876 93.8001 28.688C94.0737 28.495 94.2109 28.218 94.2109 27.8568C94.2109 27.6243 94.1484 27.4412 94.0243 27.3077C93.9046 27.1741 93.7528 27.0702 93.5686 26.996C93.3844 26.9168 93.1828 26.8574 92.9635 26.8179C92.7496 26.7733 92.5503 26.7263 92.3662 26.6769C92.182 26.6274 92.0277 26.5655 91.9031 26.4913C91.7839 26.4122 91.7239 26.2984 91.7239 26.15C91.7239 25.7937 92.0101 25.6156 92.5829 25.6156C93.1603 25.6156 93.4739 25.8086 93.5237 26.1945H94.0913C94.0883 26.1692 94.0848 26.1443 94.0806 26.1198C94.0346 25.8524 93.9112 25.6349 93.7103 25.4672C93.4465 25.2495 93.0856 25.1407 92.6275 25.1407C92.1448 25.1407 91.7786 25.2347 91.5299 25.4227Z" fill="#171718"/>
<path d="M57.4057 27.0546C57.4057 26.0612 56.5951 25.2518 55.6004 25.2518C54.9225 25.2518 54.3698 25.6271 54.0898 26.1789V25.3989H53.7951V30.2916H54.0747L54.0898 27.9303C54.3698 28.4821 54.9225 28.8574 55.6004 28.8574C56.5951 28.8574 57.4057 28.048 57.4057 27.0546ZM57.1109 27.0546C57.1109 27.9082 56.433 28.5999 55.6004 28.5999C54.7677 28.5999 54.0898 27.9082 54.0898 27.0546C54.0898 26.201 54.7677 25.5093 55.6004 25.5093C56.433 25.5093 57.1109 26.201 57.1109 27.0546Z" fill="#171718"/>
<path fill-rule="evenodd" clip-rule="evenodd" d="M54.0747 30.2916H53.7951V25.3989H54.0898V26.1789C54.1427 26.0747 54.2053 25.9767 54.2767 25.8864C54.5831 25.4986 55.0505 25.2518 55.6004 25.2518C56.5951 25.2518 57.4057 26.0612 57.4057 27.0546C57.4057 28.048 56.5951 28.8574 55.6004 28.8574C55.0505 28.8574 54.5831 28.6106 54.2767 28.2228C54.2053 28.1325 54.1427 28.0345 54.0898 27.9303L54.0747 30.2916ZM54.2767 28.5033L54.2767 30.2916H53.6082V25.2041H54.2767V25.6059C54.6116 25.2714 55.0722 25.0651 55.6004 25.0651C56.6983 25.0651 57.5926 25.9581 57.5926 27.0546C57.5926 28.1511 56.6983 29.0441 55.6004 29.0441C55.0722 29.0441 54.6116 28.8378 54.2767 28.5033ZM55.6004 28.4132C56.3257 28.4132 56.924 27.8092 56.924 27.0546C56.924 26.3 56.3257 25.696 55.6004 25.696C54.875 25.696 54.2767 26.3 54.2767 27.0546C54.2767 27.8092 54.875 28.4132 55.6004 28.4132ZM55.6004 28.5999C56.433 28.5999 57.1109 27.9082 57.1109 27.0546C57.1109 26.201 56.433 25.5093 55.6004 25.5093C54.7677 25.5093 54.0898 26.201 54.0898 27.0546C54.0898 27.9082 54.7677 28.5999 55.6004 28.5999Z" fill="#171718"/>
<path d="M63.0744 24.2266L62.7796 24.2266V24.5505H63.0744V24.2266ZM63.0744 25.5485H62.7796V28.8598H63.0744V25.5485Z" fill="#171718"/>
<path fill-rule="evenodd" clip-rule="evenodd" d="M63.2613 24.0399V24.7371H62.5927V24.04L63.2613 24.0399ZM63.2613 25.3619V29.0465H62.5927V25.3619H63.2613ZM63.0744 24.5505H62.7796V24.2266L63.0744 24.2266V24.5505ZM62.7796 25.5485H63.0744V28.8598H62.7796V25.5485Z" fill="#171718"/>
<path d="M70.2062 27.2042L71.5989 25.5485H71.2231L70.022 26.9834L68.8136 25.5485H68.4378L69.8304 27.2042L68.4378 28.8598H68.8136L70.022 27.4249L71.2231 28.8598H71.5989L70.2062 27.2042Z" fill="#171718"/>
<path fill-rule="evenodd" clip-rule="evenodd" d="M68.8136 25.5485L70.022 26.9834L71.2231 25.5485H71.5989L70.2062 27.2042L71.5989 28.8598H71.2231L70.022 27.4249L68.8136 28.8598H68.4378L69.8304 27.2042L68.4378 25.5485H68.8136ZM69.5863 27.2042L68.0367 25.3618H68.9006L70.0216 26.6929L71.1357 25.3618H72L70.4503 27.2042L72 29.0465H71.1357L70.0216 27.7154L68.9006 29.0465H68.0367L69.5863 27.2042Z" fill="#171718"/>
<path d="M78.8703 28.468C79.3842 28.468 79.7531 28.3114 79.977 27.8966H80.6028C80.4705 28.2324 80.2594 28.4531 79.9693 28.6605C79.6844 28.8679 79.3155 28.9716 78.8626 28.9716C78.2877 28.9716 77.8195 28.7864 77.4583 28.4161C77.1072 28.0556 76.9316 27.6038 76.9316 27.0607C76.9316 26.5125 77.0995 26.0607 77.4354 25.7052C77.7915 25.3349 78.2546 25.1497 78.8245 25.1497C79.3944 25.1497 79.8574 25.3349 80.2136 25.7052C80.5494 26.0607 80.7173 26.5125 80.7173 27.0607V27.2829H77.5193C77.56 27.6236 77.6999 27.905 77.9391 28.1272C78.1833 28.3544 78.4937 28.468 78.8703 28.468ZM78.8245 25.6534C78.4734 25.6534 78.1783 25.7595 77.9391 25.9719C77.7152 26.1743 77.5778 26.4385 77.5269 26.7644H80.122C80.0711 26.4385 79.9337 26.1743 79.7098 25.9719C79.4707 25.7595 79.1756 25.6534 78.8245 25.6534Z" fill="#171718"/>
<path fill-rule="evenodd" clip-rule="evenodd" d="M79.9279 27.8145H80.7235L80.6793 27.9267C80.5395 28.2816 80.3156 28.5138 80.0175 28.7271C79.715 28.9471 79.3278 29.0537 78.8626 29.0537C78.2682 29.0537 77.7779 28.8614 77.3994 28.4734C77.0321 28.0963 76.8494 27.6233 76.8494 27.0607C76.8494 26.4944 77.0235 26.0215 77.3756 25.6489L77.3761 25.6483C77.7495 25.26 78.2349 25.0676 78.8245 25.0676C79.4141 25.0676 79.8994 25.26 80.2729 25.6483L80.2734 25.6489C80.6254 26.0215 80.7995 26.4944 80.7995 27.0607V27.365H77.6147C77.6657 27.646 77.7926 27.879 77.9951 28.0671C78.2221 28.2783 78.5116 28.3859 78.8703 28.3859C79.1194 28.3859 79.3265 28.3478 79.496 28.2642C79.664 28.1814 79.8001 28.0512 79.9046 27.8577L79.9279 27.8145ZM77.5312 27.365C77.5266 27.338 77.5226 27.3106 77.5193 27.2829H80.7173V27.0607C80.7173 26.5125 80.5494 26.0607 80.2136 25.7052C79.8574 25.3349 79.3944 25.1497 78.8245 25.1497C78.2546 25.1497 77.7915 25.3349 77.4354 25.7052C77.0995 26.0607 76.9316 26.5125 76.9316 27.0607C76.9316 27.6038 77.1072 28.0556 77.4583 28.4161C77.8195 28.7864 78.2877 28.9716 78.8626 28.9716C79.3155 28.9716 79.6844 28.8679 79.9693 28.6605C80.2351 28.4705 80.4346 28.2693 80.5679 27.9787C80.5801 27.9521 80.5918 27.9248 80.6028 27.8966H79.977C79.7531 28.3114 79.3842 28.468 78.8703 28.468C78.4937 28.468 78.1833 28.3544 77.9391 28.1272C77.7194 27.9231 77.5835 27.669 77.5312 27.365ZM77.994 26.033C77.8073 26.2019 77.6842 26.4172 77.6259 26.6823H80.023C79.9647 26.4172 79.8416 26.2019 79.6549 26.033C79.4324 25.8355 79.1574 25.7355 78.8245 25.7355C78.4915 25.7355 78.2165 25.8355 77.994 26.033ZM79.7098 25.9719C79.9146 26.157 80.047 26.3938 80.1071 26.6823C80.1127 26.7092 80.1177 26.7366 80.122 26.7644H77.5269C77.5313 26.7366 77.5363 26.7092 77.5419 26.6823C77.6019 26.3938 77.7343 26.157 77.9391 25.9719C78.1783 25.7595 78.4734 25.6534 78.8245 25.6534C79.1756 25.6534 79.4707 25.7595 79.7098 25.9719Z" fill="#171718"/>
<path d="M86.0007 24.2264H85.7059V28.8599H86.0007V24.2264Z" fill="#171718"/>
<path fill-rule="evenodd" clip-rule="evenodd" d="M86.1876 24.0397V29.0465H85.519V24.0397H86.1876ZM85.7059 24.2264H86.0007V28.8599H85.7059V24.2264Z" fill="#171718"/>
</svg>
