<svg width="16" height="10" viewBox="0 0 16 10" fill="none" xmlns="http://www.w3.org/2000/svg">
<path d="M8 0.333328C8.61884 0.333328 9.21233 0.579161 9.64992 1.01675C10.0875 1.45433 10.3333 2.04782 10.3333 2.66666C10.3333 3.2855 10.0875 3.87899 9.64992 4.31658C9.21233 4.75416 8.61884 5 8 5C7.38116 5 6.78767 4.75416 6.35008 4.31658C5.9125 3.87899 5.66667 3.2855 5.66667 2.66666C5.66667 2.04782 5.9125 1.45433 6.35008 1.01675C6.78767 0.579161 7.38116 0.333328 8 0.333328ZM3.33333 1.99999C3.70667 1.99999 4.05333 2.1 4.35333 2.27999C4.25333 3.23333 4.53333 4.18 5.10667 4.92C4.77333 5.56 4.10667 6 3.33333 6C2.8029 6 2.29419 5.78928 1.91912 5.41421C1.54405 5.03914 1.33333 4.53043 1.33333 3.99999C1.33333 3.46956 1.54405 2.96085 1.91912 2.58578C2.29419 2.21071 2.8029 1.99999 3.33333 1.99999ZM12.6667 1.99999C13.1971 1.99999 13.7058 2.21071 14.0809 2.58578C14.456 2.96085 14.6667 3.46956 14.6667 3.99999C14.6667 4.53043 14.456 5.03914 14.0809 5.41421C13.7058 5.78928 13.1971 6 12.6667 6C11.8933 6 11.2267 5.56 10.8933 4.92C11.4746 4.16961 11.7444 3.22413 11.6467 2.27999C11.9467 2.1 12.2933 1.99999 12.6667 1.99999ZM3.66667 8.83333C3.66667 7.45333 5.60667 6.33333 8 6.33333C10.3933 6.33333 12.3333 7.45333 12.3333 8.83333V10H3.66667V8.83333ZM0 10V9C0 8.07333 1.26 7.29333 2.96667 7.06666C2.57333 7.52 2.33333 8.14666 2.33333 8.83333V10H0ZM16 10H13.6667V8.83333C13.6667 8.14666 13.4267 7.52 13.0333 7.06666C14.74 7.29333 16 8.07333 16 9V10Z" fill="#171718"/>
</svg>
